{"title":"Bombay Boys (English audio)","uid":6924321,"size":729693908,"categoryP":"video","categoryS":"movies","magnet":"?xt=urn:btih:b2d5328e52ff850346ad41e19f78be7e9f1530f1&amp;dn=Bombay+Boys+%28English+audio%29&amp;tr=udp%3A%2F%2Ftracker.openbittorrent.com%3A80&amp;tr=udp%3A%2F%2Fopen.demonii.com%3A1337&amp;tr=udp%3A%2F%2Ftracker.coppersurfer.tk%3A6969&amp;tr=udp%3A%2F%2Fexodus.desync.com%3A6969","seeders":0,"leechers":1,"uploader":"rexdude","files":2,"time":1325413438,"description":"This is a brilliant but obscure indie film that takes a satirical look at Bollywood and Bombay, through the eyes of the eponymous 3 foreign returned Indians, each looking for something different in the city.\n\nIt's been very hard to find on the net, and all the links one finds point to the Hindi dubbed version (any torrent from desidhamaal.com, for example). I found this, the original English version on an obscure torrent site and it took me 3 months to download!\nPlease share this movie and seed - it's great fun.\n\n\nTechnical info:\nFormat : AVI\nFormat/Info : Audio Video Interleave\nFile size : 696 MiB\nDuration : 1h 40mn\nOverall bit rate : 969 Kbps\nMovie name : Bombay Boys\nDirector : Kaizad Gustad\nGenre : Comedy\nWriting library : VirtualDub-MPEG2 build 24586/release\nDimensions : 576x304\nCopyright : 1998\n\nVideo\nID : 0\nFormat : MPEG-4 Visual\nFormat settings, BVOP : 1\nFormat settings, QPel : No\nFormat settings, GMC : No warppoints\nFormat settings, Matrix : Default (H.263)\nMuxing mode : Packed bitstream\nCodec ID : DX50\nCodec ID/Hint : DivX 5\nDuration : 1h 40mn\nBit rate : 831 Kbps\nWidth : 576 pixels\nHeight : 304 pixels\nDisplay aspect ratio : 1.895\nFrame rate : 25.000 fps\nColor space : YUV\nChroma subsampling : 4:2:0\nBit depth : 8 bits\nScan type : Progressive\nCompression mode : Lossy\nBits/(Pixel*Frame) : 0.190\nStream size : 597 MiB (86%)\nWriting library : DivX 5.1.1 (Maupiti) (UTC 2003-11-19)\n\nAudio\nID : 1\nFormat : MPEG Audio\nFormat version : Version 1\nFormat profile : Layer 3\nCodec ID : 55\nCodec ID/Hint : MP3\nDuration : 1h 40mn\nBit rate mode : Constant\nBit rate : 128 Kbps\nChannel(s) : 1 channel\nSampling rate : 44.1 KHz\nCompression mode : Lossy\nStream size : 91.9 MiB (13%)\nAlignment : Split accross interleaves\nInterleave, duration : 40 ms (1.00 video frame)\nInterleave, preload duration : 500 ms ","torrent":{"xt":"urn:btih:b2d5328e52ff850346ad41e19f78be7e9f1530f1","amp;dn":"Bombay+Boys+%28English+audio%29","amp;tr":["udp%3A%2F%2Ftracker.openbittorrent.com%3A80","udp%3A%2F%2Fopen.demonii.com%3A1337","udp%3A%2F%2Ftracker.coppersurfer.tk%3A6969","udp%3A%2F%2Fexodus.desync.com%3A6969"],"infoHash":"b2d5328e52ff850346ad41e19f78be7e9f1530f1","infoHashBuffer":{"type":"Buffer","data":[178,213,50,142,82,255,133,3,70,173,65,225,159,120,190,126,159,21,48,241]},"announce":[],"urlList":[]}}